<?xml version="1.0" standalone="no"?>
<!DOCTYPE svg PUBLIC "-//W3C//DTD SVG 20010904//EN"
 "http://www.w3.org/TR/2001/REC-SVG-20010904/DTD/svg10.dtd">
<svg version="1.0" xmlns="http://www.w3.org/2000/svg"
 width="86.000000pt" height="86.000000pt" viewBox="0 0 86.000000 86.000000"
 preserveAspectRatio="xMidYMid meet">
<metadata>
Created by potrace 1.15, written by Peter Selinger 2001-2017
</metadata>
<g transform="translate(0.000000,86.000000) scale(0.100000,-0.100000)"
fill="#000000" stroke="none">
<path d="M335 777 c-113 -38 -191 -105 -239 -207 -27 -57 -31 -76 -31 -150 0
-75 4 -93 32 -152 17 -36 50 -85 73 -108 23 -23 72 -56 108 -73 59 -28 77 -32
152 -32 75 0 93 4 152 32 84 40 141 97 181 181 28 59 32 77 32 152 0 75 -4 93
-32 152 -60 128 -179 208 -317 215 -41 1 -88 -3 -111 -10z m215 -213 c63 -75
115 -141 115 -147 0 -29 -29 -4 -128 111 -58 68 -108 123 -112 123 -3 0 -49
-53 -102 -118 -121 -150 -111 -139 -124 -126 -8 8 19 49 102 152 63 77 119
141 124 141 6 -1 62 -62 125 -136z"/>
</g>
</svg>
